<svg xmlns="http://www.w3.org/2000/svg" xmlns:xlink="http://www.w3.org/1999/xlink" preserveAspectRatio="xMidYMid" width="15" height="14" viewBox="0 0 15 14">
  <defs>
    <style>
      .cls-1 {
        fill: #ff7010;
        fill-rule: evenodd;
      }
    </style>
  </defs>
  <path d="M13.276,11.784 C13.256,11.918 13.175,12.036 13.056,12.107 C12.982,12.150 12.898,12.173 12.813,12.173 C12.761,12.173 12.710,12.165 12.661,12.149 L6.109,9.968 L12.552,2.408 L4.226,9.341 L0.317,8.039 C0.140,7.981 0.016,7.825 0.001,7.643 C-0.012,7.460 0.086,7.287 0.252,7.203 L14.314,0.050 C14.471,-0.029 14.659,-0.016 14.803,0.083 C14.947,0.184 15.021,0.353 14.995,0.523 L13.276,11.784 ZM6.315,13.813 C6.225,13.932 6.084,13.999 5.938,13.999 C5.889,13.999 5.840,13.992 5.792,13.977 C5.599,13.914 5.469,13.740 5.469,13.543 L5.469,10.720 L8.011,11.566 L6.315,13.813 Z" class="cls-1"/>
</svg>
