<svg xmlns="http://www.w3.org/2000/svg" xmlns:xlink="http://www.w3.org/1999/xlink" preserveAspectRatio="xMidYMid" width="14" height="14" viewBox="0 0 14 14">
  <defs>
    <style>
      .cls-1 {
        fill: #ff7010;
        fill-rule: evenodd;
      }
    </style>
  </defs>
  <path d="M13.858,7.341 C13.768,7.432 13.645,7.483 13.517,7.483 C13.250,7.483 13.034,7.267 13.034,7.000 C13.030,3.669 10.331,0.970 7.000,0.965 C6.733,0.965 6.517,0.749 6.517,0.482 C6.517,0.216 6.733,-0.000 7.000,-0.000 C10.864,0.004 13.995,3.135 14.000,7.000 C14.000,7.128 13.949,7.251 13.858,7.341 ZM10.620,7.000 C10.618,5.001 8.999,3.381 7.000,3.379 C6.733,3.379 6.517,3.163 6.517,2.897 C6.517,2.630 6.733,2.414 7.000,2.414 C9.532,2.416 11.583,4.468 11.586,7.000 C11.586,7.267 11.370,7.483 11.103,7.483 C10.837,7.483 10.620,7.267 10.620,7.000 ZM9.005,9.909 C9.153,9.928 9.302,9.876 9.407,9.771 L10.488,8.689 C10.647,8.531 10.894,8.503 11.085,8.622 L13.758,10.343 C13.969,10.476 14.044,10.745 13.933,10.968 L12.632,13.732 C12.543,13.911 12.352,14.017 12.152,13.997 C10.776,13.852 7.394,13.253 4.070,9.929 C0.747,6.605 0.147,3.223 0.002,1.847 C-0.018,1.647 0.088,1.456 0.268,1.367 L3.032,0.065 C3.254,-0.046 3.525,0.030 3.657,0.241 L5.379,2.915 C5.498,3.105 5.470,3.353 5.311,3.512 L4.229,4.593 C4.123,4.698 4.072,4.847 4.091,4.995 C4.159,5.530 4.461,6.866 5.797,8.203 C7.134,9.539 8.470,9.840 9.005,9.909 Z" class="cls-1"/>
</svg>
