<svg xmlns="http://www.w3.org/2000/svg" xmlns:xlink="http://www.w3.org/1999/xlink" preserveAspectRatio="xMidYMid" width="18" height="18" viewBox="0 0 18 18">
  <defs>
    <style>
      .cls-1 {
        fill: #e5f0f5;
        fill-rule: evenodd;
      }
    </style>
  </defs>
  <path d="M18.000,6.047 L18.000,8.858 C18.000,9.247 17.685,9.561 17.297,9.561 L16.834,9.561 L16.538,12.198 C16.498,12.557 16.193,12.823 15.840,12.823 C15.814,12.823 15.787,12.822 15.761,12.818 C15.375,12.775 15.097,12.427 15.141,12.041 L15.507,8.780 C15.547,8.425 15.848,8.156 16.206,8.156 L16.594,8.156 L16.594,6.749 L1.406,6.749 L1.406,8.156 L13.394,8.156 C13.783,8.156 14.097,8.470 14.097,8.858 C14.097,9.247 13.783,9.561 13.394,9.561 L2.594,9.561 L3.288,15.354 C3.372,16.060 3.973,16.593 4.684,16.593 L13.372,16.593 C14.089,16.593 14.689,16.056 14.770,15.343 C14.813,14.958 15.161,14.680 15.547,14.723 C15.933,14.766 16.210,15.114 16.167,15.501 C16.007,16.925 14.805,17.999 13.372,17.999 L4.684,17.999 C3.261,17.999 2.061,16.933 1.891,15.521 L1.177,9.561 L0.703,9.561 C0.315,9.561 -0.000,9.247 -0.000,8.858 L-0.000,6.047 C-0.000,5.658 0.315,5.344 0.703,5.344 L3.197,5.344 L6.912,0.287 C7.142,-0.026 7.582,-0.094 7.895,0.136 C8.208,0.366 8.276,0.807 8.045,1.119 L4.942,5.344 L13.084,5.344 L9.980,1.119 C9.750,0.807 9.817,0.366 10.130,0.136 C10.443,-0.094 10.883,-0.027 11.113,0.287 L14.829,5.344 L17.297,5.344 C17.685,5.344 18.000,5.658 18.000,6.047 L18.000,6.047 ZM8.297,11.671 L8.297,14.484 C8.297,14.871 8.612,15.186 9.000,15.186 C9.388,15.186 9.703,14.871 9.703,14.484 L9.703,11.671 C9.703,11.283 9.388,10.968 9.000,10.968 C8.612,10.968 8.297,11.283 8.297,11.671 L8.297,11.671 ZM11.109,11.671 L11.109,14.484 C11.109,14.871 11.424,15.186 11.812,15.186 C12.201,15.186 12.516,14.871 12.516,14.484 L12.516,11.671 C12.516,11.283 12.201,10.968 11.812,10.968 C11.424,10.968 11.109,11.283 11.109,11.671 L11.109,11.671 ZM5.484,11.671 L5.484,14.484 C5.484,14.871 5.799,15.186 6.187,15.186 C6.576,15.186 6.890,14.871 6.890,14.484 L6.890,11.671 C6.890,11.283 6.576,10.968 6.187,10.968 C5.799,10.968 5.484,11.283 5.484,11.671 L5.484,11.671 Z" class="cls-1"/>
</svg>
