<svg xmlns="http://www.w3.org/2000/svg" xmlns:xlink="http://www.w3.org/1999/xlink" preserveAspectRatio="xMidYMid" width="19" height="16" viewBox="0 0 19 16">
  <defs>
    <style>
      .cls-1 {
        fill: #ff7010;
        fill-rule: evenodd;
      }
    </style>
  </defs>
  <path d="M18.247,11.278 C17.745,12.069 17.056,12.738 16.180,13.283 C16.250,13.466 16.323,13.632 16.397,13.783 C16.472,13.935 16.560,14.081 16.662,14.221 C16.765,14.361 16.844,14.471 16.901,14.551 C16.957,14.631 17.049,14.742 17.176,14.886 C17.303,15.029 17.385,15.124 17.420,15.170 C17.427,15.177 17.441,15.194 17.462,15.221 C17.484,15.247 17.500,15.266 17.510,15.278 C17.521,15.289 17.535,15.308 17.552,15.334 C17.570,15.360 17.582,15.382 17.590,15.396 L17.616,15.453 C17.616,15.453 17.623,15.476 17.638,15.522 C17.651,15.567 17.653,15.592 17.643,15.595 C17.632,15.599 17.629,15.624 17.632,15.669 C17.611,15.775 17.565,15.858 17.494,15.919 C17.424,15.979 17.345,16.005 17.261,15.999 C16.908,15.946 16.603,15.885 16.349,15.817 C15.260,15.513 14.278,15.029 13.402,14.362 C12.765,14.483 12.144,14.544 11.536,14.544 C9.620,14.544 7.952,14.044 6.531,13.045 C6.941,13.074 7.252,13.089 7.464,13.089 C8.602,13.089 9.694,12.919 10.740,12.579 C11.786,12.237 12.719,11.749 13.539,11.113 C14.423,10.416 15.102,9.612 15.575,8.704 C16.049,7.795 16.285,6.833 16.285,5.818 C16.285,5.235 16.204,4.659 16.041,4.091 C16.953,4.629 17.674,5.303 18.204,6.113 C18.734,6.924 18.999,7.795 18.999,8.727 C18.999,9.636 18.749,10.486 18.247,11.278 ZM11.212,10.857 C10.064,11.376 8.814,11.636 7.464,11.635 C6.856,11.635 6.234,11.574 5.598,11.453 C4.722,12.120 3.739,12.605 2.650,12.908 C2.396,12.976 2.092,13.036 1.739,13.089 L1.707,13.089 C1.629,13.089 1.557,13.059 1.489,12.999 C1.423,12.938 1.382,12.858 1.367,12.760 C1.360,12.737 1.357,12.713 1.357,12.687 C1.357,12.661 1.359,12.635 1.362,12.613 C1.366,12.589 1.373,12.567 1.383,12.545 L1.410,12.488 C1.410,12.488 1.423,12.467 1.447,12.426 C1.472,12.384 1.486,12.365 1.489,12.369 C1.493,12.373 1.509,12.353 1.538,12.312 C1.566,12.270 1.580,12.253 1.580,12.261 C1.615,12.215 1.697,12.121 1.824,11.977 C1.951,11.833 2.043,11.721 2.099,11.642 C2.156,11.562 2.235,11.452 2.338,11.312 C2.441,11.172 2.529,11.026 2.603,10.875 C2.677,10.724 2.749,10.557 2.821,10.375 C1.944,9.830 1.255,9.159 0.753,8.363 C0.251,7.569 -0.000,6.720 -0.000,5.818 C-0.000,4.766 0.332,3.793 0.997,2.898 C1.661,2.005 2.568,1.298 3.716,0.780 C4.865,0.260 6.114,0.001 7.464,0.001 C8.815,0.001 10.064,0.260 11.212,0.780 C12.361,1.298 13.267,2.005 13.932,2.898 C14.596,3.793 14.928,4.766 14.928,5.818 C14.928,6.871 14.596,7.845 13.932,8.738 C13.267,9.632 12.361,10.339 11.212,10.857 ZM12.739,3.648 C12.184,2.974 11.437,2.440 10.497,2.046 C9.556,1.652 8.546,1.456 7.464,1.456 C6.383,1.456 5.372,1.652 4.432,2.046 C3.492,2.440 2.744,2.974 2.190,3.648 C1.635,4.322 1.357,5.045 1.357,5.818 C1.357,6.439 1.545,7.038 1.919,7.614 C2.294,8.190 2.820,8.689 3.499,9.114 L4.527,9.749 L4.156,10.704 C4.396,10.553 4.616,10.405 4.813,10.261 L5.280,9.909 L5.842,10.023 C6.394,10.128 6.934,10.181 7.464,10.181 C8.546,10.181 9.556,9.984 10.497,9.591 C11.437,9.197 12.184,8.662 12.739,7.988 C13.294,7.314 13.572,6.591 13.572,5.818 C13.572,5.045 13.294,4.322 12.739,3.648 Z" class="cls-1"/>
</svg>
