<svg xmlns="http://www.w3.org/2000/svg" xmlns:xlink="http://www.w3.org/1999/xlink" preserveAspectRatio="xMidYMid" width="13" height="15" viewBox="0 0 13 15">
  <defs>
    <style>
      .cls-1 {
        fill: #fff;
        fill-rule: evenodd;
      }
    </style>
  </defs>
  <path d="M9.748,4.324 C8.035,4.324 7.149,4.836 6.535,5.625 C6.293,5.117 6.024,4.586 5.674,4.069 C5.737,4.007 5.801,3.945 5.867,3.884 C6.819,3.016 8.087,2.594 9.748,2.594 L9.748,-0.002 L12.999,3.458 L9.748,6.920 L9.748,4.324 ZM9.748,10.671 L9.748,8.076 L12.999,11.537 L9.748,14.998 L9.748,12.402 C8.087,12.402 6.819,11.981 5.867,11.112 C5.032,10.349 4.581,9.390 4.146,8.463 C3.364,6.797 2.745,5.480 -0.003,5.480 L-0.003,3.751 C1.657,3.751 2.927,4.172 3.878,5.040 C4.714,5.803 5.164,6.761 5.600,7.689 C6.382,9.356 7.001,10.671 9.748,10.671 ZM3.210,9.748 C3.452,10.256 3.721,10.787 4.071,11.303 C4.009,11.366 3.944,11.428 3.878,11.488 C2.927,12.357 1.657,12.779 -0.003,12.779 L-0.003,11.048 C1.711,11.048 2.597,10.538 3.210,9.748 Z" class="cls-1"/>
</svg>
