<svg xmlns="http://www.w3.org/2000/svg" xmlns:xlink="http://www.w3.org/1999/xlink" preserveAspectRatio="xMidYMid" width="14" height="16" viewBox="0 0 14 16">
  <defs>
    <style>
      .cls-1 {
        fill: #97b0c1;
        fill-rule: evenodd;
      }
    </style>
  </defs>
  <path d="M12.717,15.999 L1.283,15.999 C0.574,15.999 -0.000,15.349 -0.000,14.556 L-0.000,3.214 C-0.000,2.437 0.562,1.804 1.246,1.781 L1.246,3.716 C1.246,4.591 1.881,5.296 2.664,5.296 L3.558,5.296 C4.341,5.296 4.984,4.591 4.984,3.716 L4.984,1.774 L9.015,1.774 L9.015,3.716 C9.015,4.591 9.659,5.296 10.442,5.296 L11.336,5.296 C12.119,5.296 12.754,4.591 12.754,3.716 L12.754,1.781 C13.438,1.804 14.000,2.437 14.000,3.214 L14.000,14.556 C14.000,15.347 13.424,15.999 12.717,15.999 ZM12.338,7.991 C12.338,7.649 12.090,7.371 11.784,7.371 L2.192,7.371 C1.885,7.371 1.637,7.649 1.637,7.991 L1.637,13.850 C1.637,14.193 1.886,14.470 2.192,14.470 L11.784,14.470 C12.090,14.470 12.338,14.193 12.338,13.850 L12.338,7.991 ZM10.401,13.624 L9.267,13.624 C9.088,13.624 8.942,13.461 8.942,13.261 L8.942,11.994 C8.942,11.793 9.088,11.631 9.267,11.631 L10.401,11.631 C10.581,11.631 10.726,11.793 10.726,11.994 L10.726,13.261 C10.726,13.461 10.581,13.624 10.401,13.624 ZM10.401,10.457 L9.267,10.457 C9.088,10.457 8.942,10.294 8.942,10.094 L8.942,8.827 C8.942,8.626 9.088,8.463 9.267,8.463 L10.401,8.463 C10.581,8.463 10.726,8.626 10.726,8.827 L10.726,10.094 C10.726,10.294 10.581,10.457 10.401,10.457 ZM7.567,13.624 L6.433,13.624 C6.254,13.624 6.108,13.461 6.108,13.261 L6.108,11.994 C6.108,11.793 6.254,11.631 6.433,11.631 L7.567,11.631 C7.746,11.631 7.892,11.793 7.892,11.994 L7.892,13.261 C7.892,13.461 7.746,13.624 7.567,13.624 ZM7.567,10.457 L6.433,10.457 C6.254,10.457 6.108,10.294 6.108,10.094 L6.108,8.827 C6.108,8.626 6.254,8.463 6.433,8.463 L7.567,8.463 C7.746,8.463 7.892,8.626 7.892,8.827 L7.892,10.094 C7.892,10.294 7.746,10.457 7.567,10.457 ZM4.733,13.624 L3.599,13.624 C3.419,13.624 3.274,13.461 3.274,13.261 L3.274,11.994 C3.274,11.793 3.419,11.631 3.599,11.631 L4.733,11.631 C4.912,11.631 5.058,11.793 5.058,11.994 L5.058,13.261 C5.058,13.461 4.912,13.624 4.733,13.624 ZM4.733,10.457 L3.599,10.457 C3.419,10.457 3.274,10.294 3.274,10.094 L3.274,8.827 C3.274,8.626 3.419,8.463 3.599,8.463 L4.733,8.463 C4.912,8.463 5.058,8.626 5.058,8.827 L5.058,10.094 C5.058,10.294 4.912,10.457 4.733,10.457 ZM11.315,4.258 L10.430,4.258 C10.162,4.258 9.944,4.016 9.944,3.716 L9.944,0.543 C9.944,0.242 10.162,-0.001 10.430,-0.001 L11.315,-0.001 C11.583,-0.001 11.801,0.242 11.801,0.543 L11.801,3.716 C11.801,4.016 11.583,4.258 11.315,4.258 ZM3.545,4.258 L2.661,4.258 C2.392,4.258 2.174,4.016 2.174,3.716 L2.174,0.543 C2.174,0.242 2.392,-0.001 2.661,-0.001 L3.545,-0.001 C3.814,-0.001 4.032,0.242 4.032,0.543 L4.032,3.716 C4.032,4.016 3.814,4.258 3.545,4.258 Z" class="cls-1"/>
</svg>
