<svg xmlns="http://www.w3.org/2000/svg" xmlns:xlink="http://www.w3.org/1999/xlink" preserveAspectRatio="xMidYMid" width="21" height="12" viewBox="0 0 21 12">
  <defs>
    <style>
      .cls-1 {
        fill: #e5f0f5;
        fill-rule: evenodd;
      }
    </style>
  </defs>
  <path d="M19.095,7.090 L19.095,8.832 L17.181,8.832 L17.181,7.090 L15.277,7.090 L15.277,5.341 L17.181,5.341 L17.181,3.599 L19.095,3.599 L19.095,5.341 L21.000,5.341 L21.000,7.090 L19.095,7.090 ZM6.562,11.999 C2.936,11.999 -0.000,9.314 -0.000,5.999 C-0.000,2.684 2.936,-0.001 6.562,-0.001 C8.335,-0.001 9.812,0.589 10.959,1.571 L9.178,3.134 C8.694,2.708 7.844,2.209 6.563,2.209 C4.325,2.209 2.499,3.904 2.499,5.999 C2.499,8.094 4.326,9.789 6.563,9.789 C9.160,9.789 10.136,8.079 10.288,7.202 L6.563,7.202 L6.563,5.140 L12.758,5.140 C12.821,5.442 12.865,5.746 12.865,6.139 C12.865,9.569 10.349,11.999 6.562,11.999 Z" class="cls-1"/>
</svg>
