<svg xmlns="http://www.w3.org/2000/svg" xmlns:xlink="http://www.w3.org/1999/xlink" preserveAspectRatio="xMidYMid" width="18" height="19" viewBox="0 0 18 19">
  <defs>
    <style>
      .cls-1 {
        fill: #e5f0f5;
        fill-rule: evenodd;
      }
    </style>
  </defs>
  <path d="M16.113,6.349 C15.971,2.828 12.839,0.003 9.009,0.003 C5.179,0.003 2.046,2.828 1.905,6.349 C0.710,6.580 0.006,7.429 0.006,8.663 L0.006,11.956 C0.006,13.720 1.386,14.346 2.569,14.346 L3.668,14.346 C4.036,14.346 4.337,14.060 4.337,13.708 L4.337,6.926 C4.337,6.574 4.036,6.288 3.668,6.288 L3.246,6.288 C3.409,3.489 5.931,1.259 9.009,1.259 C12.087,1.259 14.608,3.489 14.772,6.288 L14.350,6.288 C13.981,6.288 13.681,6.574 13.681,6.926 L13.681,13.698 C13.681,14.050 13.981,14.336 14.350,14.336 L14.761,14.336 C14.606,16.063 13.791,16.679 11.506,16.818 C11.468,16.304 11.013,15.897 10.460,15.897 L8.077,15.897 C7.500,15.897 7.029,16.340 7.029,16.886 L7.029,18.024 C7.029,18.569 7.500,19.013 8.077,19.013 L10.468,19.013 C11.020,19.013 11.473,18.608 11.513,18.095 C13.666,17.978 15.878,17.491 16.104,14.276 C17.304,14.048 18.012,13.197 18.012,11.960 L18.012,8.667 C18.012,7.431 17.307,6.579 16.113,6.349 ZM16.693,8.676 L16.673,11.956 C16.673,12.695 16.261,13.070 15.448,13.070 L15.019,13.070 L15.019,7.565 L15.467,7.565 C16.281,7.565 16.693,7.939 16.693,8.676 ZM2.550,7.540 L2.998,7.540 L2.998,13.059 L2.550,13.059 C1.737,13.059 1.325,12.684 1.325,11.946 L1.325,8.654 C1.325,7.915 1.737,7.540 2.550,7.540 ZM10.177,17.177 L10.177,17.740 L8.368,17.740 L8.368,17.177 L10.177,17.177 Z" class="cls-1"/>
</svg>
