<svg xmlns="http://www.w3.org/2000/svg" xmlns:xlink="http://www.w3.org/1999/xlink" preserveAspectRatio="xMidYMid" width="18" height="18" viewBox="0 0 18 18">
  <defs>
    <style>
      .cls-1 {
        fill: #e5f0f5;
        fill-rule: evenodd;
      }
    </style>
  </defs>
  <path d="M17.250,14.249 L14.250,14.249 L14.250,17.249 C14.250,17.664 13.915,17.999 13.500,17.999 C13.085,17.999 12.750,17.664 12.750,17.249 L12.750,14.249 L9.750,14.249 C9.335,14.249 9.000,13.914 9.000,13.499 C9.000,13.085 9.335,12.749 9.750,12.749 L12.750,12.749 L12.750,9.750 C12.750,9.336 13.085,8.999 13.500,8.999 C13.915,8.999 14.250,9.336 14.250,9.750 L14.250,12.749 L17.250,12.749 C17.665,12.749 18.000,13.085 18.000,13.499 C18.000,13.914 17.665,14.249 17.250,14.249 ZM7.500,10.499 C6.505,10.499 5.588,10.171 4.842,9.622 C2.863,10.604 1.500,12.645 1.500,14.999 L1.500,15.749 C1.500,16.163 1.836,16.499 2.250,16.499 L9.000,16.499 C9.415,16.499 9.750,16.836 9.750,17.249 C9.750,17.664 9.415,17.999 9.000,17.999 L2.250,17.999 C1.009,17.999 -0.000,16.990 -0.000,15.749 L-0.000,14.999 C-0.000,12.224 1.519,9.805 3.766,8.509 C3.283,7.791 3.000,6.928 3.000,5.999 L3.000,4.499 C3.000,2.018 5.018,-0.001 7.500,-0.001 C9.982,-0.001 12.000,2.018 12.000,4.499 L12.000,5.999 C12.000,8.481 9.982,10.499 7.500,10.499 ZM10.500,4.499 C10.500,2.845 9.154,1.499 7.500,1.499 C5.845,1.499 4.500,2.845 4.500,4.499 L4.500,5.999 C4.500,7.653 5.845,8.999 7.500,8.999 C9.154,8.999 10.500,7.653 10.500,5.999 L10.500,4.499 Z" class="cls-1"/>
</svg>
