<svg xmlns="http://www.w3.org/2000/svg" xmlns:xlink="http://www.w3.org/1999/xlink" preserveAspectRatio="xMidYMid" width="18.032" height="18.031" viewBox="0 0 18.032 18.031">
  <defs>
    <style>
      .cls-1 {
        fill: #e5f0f5;
        fill-rule: evenodd;
      }
    </style>
  </defs>
  <path d="M17.107,17.252 C17.081,17.280 17.065,17.293 17.049,17.304 C16.529,17.774 15.845,18.037 15.133,18.037 L14.664,18.037 C14.405,18.037 14.194,17.825 14.194,17.566 C14.194,17.306 14.405,17.095 14.664,17.095 L15.133,17.095 C15.449,17.095 15.759,17.018 16.038,16.870 L10.663,11.497 C9.749,10.581 8.260,10.581 7.345,11.497 L3.414,15.428 L7.754,15.428 C8.014,15.428 8.225,15.639 8.225,15.898 C8.225,16.158 8.014,16.369 7.754,16.369 L2.473,16.369 L1.971,16.870 C2.250,17.018 2.560,17.095 2.876,17.095 L11.572,17.095 C11.831,17.095 12.043,17.306 12.043,17.566 C12.043,17.825 11.831,18.037 11.572,18.037 L2.876,18.037 C1.285,18.037 -0.008,16.743 -0.008,15.152 L-0.008,6.244 C-0.008,6.120 0.040,6.003 0.129,5.913 L2.562,3.481 L2.562,1.524 C2.562,0.690 3.240,0.012 4.074,0.012 L13.935,0.012 C14.769,0.012 15.447,0.690 15.447,1.524 L15.447,3.499 L17.879,5.911 C17.967,6.000 18.017,6.121 18.017,6.244 L18.017,15.152 C18.017,15.954 17.694,16.700 17.107,17.252 ZM2.562,4.812 L1.128,6.244 L2.562,7.678 L2.562,4.812 ZM0.933,7.382 L0.933,15.152 C0.933,15.545 1.049,15.920 1.269,16.242 L5.531,11.979 L0.933,7.382 ZM14.506,1.524 C14.506,1.210 14.249,0.953 13.935,0.953 L4.074,0.953 C3.759,0.953 3.503,1.210 3.503,1.524 L3.503,8.619 L6.197,11.314 L6.679,10.831 C7.320,10.190 8.162,9.870 9.004,9.870 C9.846,9.870 10.688,10.190 11.330,10.831 L11.812,11.314 L14.506,8.619 L14.506,1.524 ZM15.447,4.824 L15.447,7.678 L16.880,6.245 L15.447,4.824 ZM17.075,7.382 L12.478,11.979 L16.740,16.242 C16.960,15.920 17.075,15.545 17.075,15.152 L17.075,7.382 ZM5.253,8.677 C5.253,8.417 5.465,8.206 5.724,8.206 L12.285,8.206 C12.544,8.206 12.755,8.417 12.755,8.677 C12.755,8.936 12.544,9.147 12.285,9.147 L5.724,9.147 C5.465,9.147 5.253,8.936 5.253,8.677 ZM12.285,6.648 L5.724,6.648 C5.465,6.648 5.253,6.436 5.253,6.177 C5.253,5.918 5.465,5.707 5.724,5.707 L12.285,5.707 C12.544,5.707 12.755,5.918 12.755,6.177 C12.755,6.436 12.544,6.648 12.285,6.648 ZM10.822,4.148 C10.698,4.148 10.578,4.098 10.489,4.011 C10.401,3.923 10.351,3.801 10.351,3.677 C10.351,3.551 10.401,3.430 10.489,3.344 C10.664,3.170 10.977,3.169 11.154,3.344 C11.242,3.430 11.292,3.551 11.292,3.677 C11.292,3.801 11.242,3.923 11.155,4.011 C11.066,4.098 10.945,4.148 10.822,4.148 ZM9.213,4.148 L5.724,4.148 C5.465,4.148 5.253,3.937 5.253,3.677 C5.253,3.418 5.465,3.206 5.724,3.206 L9.213,3.206 C9.472,3.206 9.683,3.418 9.683,3.677 C9.683,3.937 9.472,4.148 9.213,4.148 ZM13.119,17.095 L13.124,17.095 C13.383,17.095 13.595,17.306 13.595,17.566 C13.595,17.825 13.383,18.037 13.124,18.037 C12.860,18.037 12.648,17.825 12.648,17.566 C12.648,17.306 12.860,17.095 13.119,17.095 Z" class="cls-1"/>
</svg>
