<svg xmlns="http://www.w3.org/2000/svg" xmlns:xlink="http://www.w3.org/1999/xlink" preserveAspectRatio="xMidYMid" width="21" height="20" viewBox="0 0 21 20">
  <defs>
    <style>
      .cls-1 {
        fill: #fff;
        fill-rule: evenodd;
      }
    </style>
  </defs>
  <path d="M18.587,16.834 C18.558,17.025 18.445,17.194 18.279,17.295 C18.175,17.357 18.057,17.390 17.938,17.390 C17.866,17.390 17.794,17.378 17.726,17.355 L8.553,14.240 L17.573,3.440 L5.917,13.344 L0.444,11.485 C0.196,11.401 0.022,11.178 0.002,10.918 C-0.017,10.658 0.120,10.410 0.353,10.289 L20.040,0.072 C20.259,-0.041 20.523,-0.023 20.724,0.119 C20.926,0.262 21.029,0.504 20.993,0.747 L18.587,16.834 ZM8.841,19.732 C8.715,19.903 8.517,19.999 8.313,19.999 C8.245,19.999 8.175,19.989 8.108,19.966 C7.838,19.877 7.656,19.629 7.656,19.347 L7.656,15.313 L11.215,16.522 L8.841,19.732 Z" class="cls-1"/>
</svg>
