<svg xmlns="http://www.w3.org/2000/svg" xmlns:xlink="http://www.w3.org/1999/xlink" preserveAspectRatio="xMidYMid" width="14" height="18" viewBox="0 0 14 18">
  <defs>
    <style>
      .cls-1 {
        fill: #ff7010;
        fill-rule: evenodd;
      }
    </style>
  </defs>
  <path d="M7.000,-0.001 C3.141,-0.001 -0.000,3.049 -0.000,6.798 C-0.000,12.125 6.342,17.625 6.612,17.857 C6.723,17.952 6.861,18.000 7.000,18.000 C7.138,18.000 7.277,17.952 7.388,17.858 C7.658,17.625 14.000,12.125 14.000,6.798 C14.000,3.049 10.859,-0.001 7.000,-0.001 L7.000,-0.001 ZM7.000,10.499 C4.855,10.499 3.111,8.817 3.111,6.749 C3.111,4.681 4.855,2.999 7.000,2.999 C9.144,2.999 10.889,4.681 10.889,6.749 C10.889,8.817 9.144,10.499 7.000,10.499 L7.000,10.499 Z" class="cls-1"/>
</svg>
