<svg xmlns="http://www.w3.org/2000/svg" xmlns:xlink="http://www.w3.org/1999/xlink" preserveAspectRatio="xMidYMid" width="86" height="74" viewBox="0 0 86 74">
  <defs>
    <style>
      .cls-1 {
        fill: #23455b;
        fill-rule: evenodd;
      }
    </style>
  </defs>
  <path d="M85.989,53.608 C85.989,64.876 76.826,74.000 65.524,74.000 C54.222,74.000 45.059,64.876 45.059,53.608 C45.059,53.598 45.059,53.593 45.059,53.582 C45.038,52.987 43.835,20.496 65.008,5.005 C84.098,-8.963 63.501,8.009 58.894,34.333 C60.978,33.617 63.203,33.214 65.524,33.214 C76.826,33.214 85.989,42.345 85.989,53.608 ZM20.502,74.000 C9.196,74.000 0.038,64.876 0.038,53.608 C0.038,53.598 0.038,53.593 0.038,53.582 C0.012,52.987 -1.192,20.496 19.982,5.005 C39.077,-8.963 18.480,8.009 13.873,34.333 C15.956,33.617 18.176,33.214 20.502,33.214 C31.805,33.214 40.968,42.345 40.968,53.608 C40.968,64.876 31.805,74.000 20.502,74.000 Z" class="cls-1"/>
</svg>
