<svg xmlns="http://www.w3.org/2000/svg" xmlns:xlink="http://www.w3.org/1999/xlink" preserveAspectRatio="xMidYMid" width="14.969" height="13.62" viewBox="0 0 14.969 13.62">
  <defs>
    <style>
      .cls-1 {
        fill: #fff;
        fill-rule: evenodd;
      }
    </style>
  </defs>
  <path d="M14.976,9.867 C14.976,11.941 13.403,13.621 11.464,13.621 C9.524,13.621 7.952,11.941 7.952,9.867 C7.952,9.865 7.952,9.864 7.952,9.862 C7.948,9.752 7.742,3.771 11.375,0.919 C14.651,-1.652 11.117,1.472 10.326,6.319 C10.684,6.187 11.066,6.113 11.464,6.113 C13.403,6.113 14.976,7.794 14.976,9.867 ZM3.738,13.621 C1.797,13.621 0.226,11.941 0.226,9.867 C0.226,9.865 0.226,9.864 0.226,9.862 C0.222,9.752 0.015,3.771 3.649,0.919 C6.925,-1.652 3.391,1.472 2.600,6.319 C2.958,6.187 3.339,6.113 3.738,6.113 C5.677,6.113 7.250,7.794 7.250,9.867 C7.250,11.941 5.677,13.621 3.738,13.621 Z" class="cls-1"/>
</svg>
