<svg xmlns="http://www.w3.org/2000/svg" xmlns:xlink="http://www.w3.org/1999/xlink" preserveAspectRatio="xMidYMid" width="15" height="14" viewBox="0 0 15 14">
  <defs>
    <style>
      .cls-1 {
        fill: #fff;
        fill-rule: evenodd;
      }
    </style>
  </defs>
  <path d="M14.857,10.412 C14.762,10.852 14.655,11.254 14.535,11.618 C14.415,11.983 14.281,12.347 14.133,12.711 C13.985,13.075 13.872,13.339 13.794,13.503 L13.627,13.852 C13.582,13.951 13.504,14.001 13.393,14.001 C13.359,14.001 13.334,13.998 13.317,13.992 C13.177,13.946 13.114,13.846 13.125,13.695 C13.364,11.363 13.069,9.716 12.237,8.755 C11.880,8.341 11.405,8.019 10.810,7.789 C10.216,7.558 9.469,7.405 8.571,7.330 L8.571,9.524 C8.571,9.769 8.462,9.941 8.244,10.040 C8.172,10.069 8.102,10.084 8.035,10.084 C7.884,10.084 7.759,10.028 7.658,9.918 L3.373,5.441 C3.267,5.330 3.214,5.199 3.214,5.047 C3.214,4.896 3.267,4.765 3.373,4.654 L7.658,0.177 C7.820,-0.004 8.016,-0.044 8.244,0.054 C8.462,0.154 8.571,0.326 8.571,0.570 L8.571,2.861 C10.864,3.025 12.536,3.669 13.585,4.794 C14.528,5.802 14.999,7.285 14.999,9.244 C14.999,9.582 14.952,9.971 14.857,10.412 ZM1.875,5.047 C1.875,5.199 1.928,5.330 2.034,5.441 L5.357,8.912 L5.357,9.524 C5.357,9.769 5.248,9.941 5.030,10.040 C4.958,10.069 4.888,10.084 4.821,10.084 C4.671,10.084 4.545,10.028 4.444,9.918 L0.159,5.441 C0.053,5.330 -0.000,5.199 -0.000,5.047 C-0.000,4.896 0.053,4.765 0.159,4.654 L4.444,0.177 C4.606,-0.004 4.802,-0.044 5.030,0.054 C5.248,0.154 5.357,0.326 5.357,0.570 L5.357,1.174 L2.034,4.654 C1.928,4.764 1.875,4.896 1.875,5.047 Z" class="cls-1"/>
</svg>
