<svg xmlns="http://www.w3.org/2000/svg" xmlns:xlink="http://www.w3.org/1999/xlink" preserveAspectRatio="xMidYMid" width="15" height="16.062" viewBox="0 0 15 16.062">
  <defs>
    <style>
      .cls-1 {
        fill: #fff;
        fill-rule: evenodd;
      }
    </style>
  </defs>
  <path d="M12.490,7.043 C12.466,7.867 12.244,8.963 11.679,9.945 C11.478,10.293 11.538,10.480 11.794,10.743 C12.735,11.714 13.658,12.704 14.576,13.701 C15.305,14.492 15.040,15.680 14.075,15.977 C13.544,16.140 13.121,15.922 12.750,15.522 C11.839,14.541 10.915,13.574 10.010,12.587 C9.794,12.351 9.642,12.287 9.335,12.466 C7.170,13.733 4.989,13.712 2.905,12.309 C0.866,10.936 -0.084,8.872 0.001,6.307 C0.104,3.199 2.407,0.556 5.349,0.100 C9.133,-0.485 12.508,2.645 12.490,7.043 ZM10.617,6.671 C10.611,4.126 8.643,2.021 6.270,2.019 C3.829,2.018 1.865,4.109 1.865,6.707 C1.864,9.265 3.848,11.365 6.257,11.359 C8.657,11.354 10.623,9.240 10.617,6.671 Z" class="cls-1"/>
</svg>
