<svg xmlns="http://www.w3.org/2000/svg" xmlns:xlink="http://www.w3.org/1999/xlink" preserveAspectRatio="xMidYMid" width="30" height="36" viewBox="0 0 30 36">
  <defs>
    <style>
      .cls-1 {
        fill: #fff;
        fill-rule: evenodd;
      }
    </style>
  </defs>
  <path d="M4.534,28.743 L28.828,28.743 C28.902,28.743 28.973,28.732 29.042,28.716 C29.049,28.716 29.053,28.718 29.058,28.718 C29.578,28.718 29.998,28.292 29.998,27.768 L29.998,0.945 C29.998,0.421 29.578,-0.005 29.058,-0.005 L4.537,-0.005 C2.034,-0.005 0.001,2.050 0.001,4.576 C0.001,4.608 0.007,4.641 0.009,4.676 C0.007,7.007 -0.022,28.445 0.007,31.263 C0.005,31.318 -0.002,31.371 -0.002,31.427 C-0.002,33.856 1.880,35.844 4.250,35.994 C4.296,36.001 4.344,36.008 4.392,36.008 L29.058,36.008 C29.578,36.008 29.998,35.582 29.998,35.058 L29.998,31.487 C29.998,30.962 29.578,30.537 29.058,30.537 C28.539,30.537 28.119,30.962 28.119,31.487 L28.119,34.110 L4.534,34.110 C3.108,34.110 1.939,32.963 1.882,31.536 C1.885,31.510 1.889,31.487 1.889,31.461 C1.889,31.420 1.887,31.355 1.885,31.267 C1.967,29.863 3.124,28.743 4.534,28.743 L4.534,28.743 ZM5.175,4.576 C5.175,4.052 5.597,3.626 6.116,3.626 C6.635,3.626 7.056,4.052 7.056,4.576 L7.056,23.854 C7.056,24.378 6.635,24.802 6.116,24.802 C5.597,24.802 5.175,24.378 5.175,23.854 L5.175,4.576 Z" class="cls-1"/>
</svg>
