<svg xmlns="http://www.w3.org/2000/svg" xmlns:xlink="http://www.w3.org/1999/xlink" preserveAspectRatio="xMidYMid" width="28.97" height="36.03" viewBox="0 0 28.97 36.03">
  <defs>
    <style>
      .cls-1 {
        fill: #fff;
        fill-rule: evenodd;
      }
    </style>
  </defs>
  <path d="M26.840,5.549 C25.671,5.549 24.717,6.483 24.717,7.625 L24.717,16.638 C24.717,17.016 24.400,17.328 24.012,17.328 C23.617,17.328 23.299,17.016 23.299,16.638 L23.299,3.473 C23.299,2.323 22.351,1.396 21.176,1.396 C20.007,1.396 19.053,2.323 19.053,3.473 L19.053,15.251 C19.053,15.630 18.734,15.940 18.348,15.940 C17.953,15.940 17.635,15.630 17.635,15.251 L17.635,2.086 C17.635,0.943 16.688,0.009 15.512,0.009 C14.336,0.009 13.389,0.943 13.389,2.086 L13.389,15.251 C13.389,15.630 13.070,15.940 12.675,15.940 C12.289,15.940 11.971,15.630 11.971,15.251 L11.971,4.860 C11.971,3.710 11.016,2.783 9.848,2.783 C8.672,2.783 7.725,3.710 7.725,4.860 L7.725,22.178 L4.853,18.335 C4.003,17.057 2.342,16.624 1.126,17.362 C-0.085,18.112 -0.383,19.748 0.455,21.028 C0.455,21.028 5.081,27.874 7.054,30.802 C9.025,33.740 12.220,36.032 18.196,36.032 C28.086,36.032 28.972,28.564 28.972,26.331 L28.972,7.625 C28.972,6.483 28.015,5.549 26.840,5.549 Z" class="cls-1"/>
</svg>
