<svg xmlns="http://www.w3.org/2000/svg" xmlns:xlink="http://www.w3.org/1999/xlink" preserveAspectRatio="xMidYMid" width="36" height="36" viewBox="0 0 36 36">
  <defs>
    <style>
      .cls-1 {
        fill: #fff;
        fill-rule: evenodd;
      }
    </style>
  </defs>
  <path d="M35.958,8.901 L31.268,33.969 C31.150,34.617 30.778,35.191 30.235,35.565 C29.691,35.939 29.022,36.079 28.374,35.956 L15.169,33.490 C14.732,33.410 14.326,33.210 13.995,32.913 L21.094,31.658 C22.186,31.469 23.136,30.801 23.685,29.838 C23.736,29.864 23.790,29.882 23.846,29.894 L24.411,29.999 C24.448,30.005 24.486,30.007 24.523,30.006 C24.840,30.000 25.102,29.757 25.130,29.441 C25.159,29.126 24.946,28.839 24.635,28.776 L24.113,28.677 C24.196,28.236 24.198,27.784 24.119,27.342 L24.020,26.764 C27.447,26.440 30.124,23.659 30.318,20.222 C30.512,16.785 28.165,13.722 24.796,13.013 C23.739,12.814 22.649,12.877 21.622,13.199 L20.548,7.106 L20.566,7.007 C20.591,6.869 20.670,6.746 20.785,6.667 C20.901,6.588 21.044,6.558 21.181,6.585 L22.312,6.796 C22.650,6.859 22.975,6.636 23.038,6.299 C23.102,5.961 22.879,5.636 22.542,5.572 L21.411,5.361 C21.022,5.290 20.620,5.348 20.268,5.528 L19.914,3.523 C20.199,3.477 20.489,3.481 20.772,3.535 L33.970,6.000 C34.619,6.121 35.192,6.495 35.565,7.039 C35.938,7.583 36.079,8.253 35.958,8.901 ZM24.834,30.615 L24.728,31.180 C24.697,31.342 24.732,31.510 24.825,31.647 C24.919,31.783 25.062,31.877 25.225,31.907 C25.262,31.912 25.299,31.914 25.337,31.913 C25.634,31.912 25.889,31.701 25.945,31.410 L26.051,30.845 C26.111,30.620 26.040,30.381 25.867,30.224 C25.694,30.068 25.449,30.022 25.231,30.104 C25.013,30.187 24.860,30.384 24.834,30.615 ZM26.395,27.398 C26.222,27.242 25.977,27.196 25.759,27.278 C25.541,27.360 25.388,27.558 25.361,27.789 L25.256,28.354 C25.225,28.516 25.260,28.684 25.354,28.821 C25.446,28.957 25.590,29.051 25.753,29.081 C25.790,29.088 25.827,29.092 25.864,29.093 C26.164,29.092 26.420,28.878 26.473,28.584 L26.579,28.019 C26.639,27.794 26.568,27.554 26.395,27.398 ZM27.862,29.563 C27.769,29.426 27.624,29.333 27.461,29.304 L26.896,29.199 C26.677,29.159 26.454,29.239 26.310,29.408 C26.166,29.578 26.123,29.810 26.198,30.019 C26.273,30.229 26.454,30.383 26.672,30.422 L27.237,30.528 C27.274,30.535 27.311,30.540 27.349,30.540 C27.648,30.540 27.904,30.325 27.958,30.031 C27.990,29.869 27.955,29.700 27.862,29.563 ZM29.823,30.964 C29.651,30.807 29.405,30.761 29.188,30.843 C28.970,30.925 28.816,31.123 28.790,31.354 L28.579,32.484 C28.522,32.772 28.245,32.960 27.958,32.907 L26.827,32.696 C26.609,32.656 26.385,32.735 26.242,32.904 C26.098,33.074 26.055,33.307 26.130,33.516 C26.205,33.725 26.385,33.879 26.604,33.919 L27.734,34.130 C27.843,34.150 27.953,34.161 28.063,34.161 C28.913,34.157 29.641,33.550 29.796,32.714 L30.007,31.584 C30.067,31.359 29.996,31.119 29.823,30.964 ZM28.709,13.256 C28.748,13.261 28.788,13.263 28.827,13.262 C29.124,13.261 29.380,13.050 29.436,12.758 L29.541,12.193 C29.605,11.855 29.383,11.530 29.045,11.466 C28.707,11.403 28.381,11.626 28.318,11.963 L28.212,12.528 C28.151,12.866 28.373,13.190 28.709,13.256 ZM28.125,10.125 L27.560,10.020 C27.222,9.956 26.897,10.178 26.833,10.516 C26.770,10.854 26.993,11.179 27.330,11.243 L27.896,11.349 C27.935,11.354 27.974,11.356 28.013,11.354 C28.330,11.349 28.592,11.106 28.621,10.790 C28.650,10.475 28.436,10.187 28.125,10.125 ZM29.572,8.640 C29.235,8.577 28.909,8.799 28.846,9.138 L28.740,9.703 C28.679,10.040 28.900,10.364 29.237,10.429 C29.276,10.434 29.316,10.437 29.355,10.436 C29.652,10.435 29.908,10.224 29.964,9.932 L30.069,9.367 C30.133,9.029 29.911,8.704 29.572,8.640 ZM29.660,11.044 C29.596,11.382 29.819,11.707 30.157,11.771 L30.722,11.877 C30.761,11.882 30.800,11.884 30.839,11.883 C31.137,11.882 31.392,11.671 31.448,11.379 C31.510,11.042 31.288,10.718 30.951,10.653 L30.386,10.547 C30.048,10.484 29.723,10.706 29.660,11.044 ZM33.852,8.214 C33.586,7.826 33.178,7.559 32.715,7.473 L31.585,7.262 C31.247,7.198 30.922,7.420 30.858,7.758 C30.795,8.096 31.018,8.422 31.355,8.485 L32.486,8.696 C32.624,8.721 32.746,8.800 32.825,8.916 C32.905,9.031 32.934,9.174 32.908,9.311 L32.697,10.441 C32.635,10.779 32.857,11.103 33.194,11.168 C33.233,11.176 33.272,11.180 33.312,11.181 C33.611,11.180 33.867,10.965 33.920,10.672 L34.132,9.541 C34.218,9.079 34.118,8.601 33.852,8.214 ZM21.989,15.267 C22.871,15.549 23.630,16.126 24.138,16.901 C25.361,18.740 24.993,21.206 23.287,22.608 L21.989,15.267 ZM22.715,14.212 C23.329,14.109 23.955,14.115 24.566,14.230 C27.350,14.824 29.273,17.374 29.080,20.214 C28.886,23.052 26.634,25.318 23.796,25.528 L23.523,23.969 C24.781,23.168 25.664,21.895 25.975,20.437 C26.285,18.978 25.997,17.456 25.175,16.211 C24.579,15.308 23.721,14.611 22.715,14.212 ZM22.896,27.559 C23.133,28.908 22.232,30.195 20.883,30.435 L7.418,32.814 C6.068,33.051 4.781,32.150 4.542,30.801 L2.250,17.808 L0.039,5.293 C-0.198,3.943 0.702,2.657 2.051,2.417 L15.517,0.038 C16.866,-0.199 18.153,0.702 18.393,2.051 L20.585,14.473 L22.896,27.559 ZM17.262,25.795 L17.834,25.690 C18.171,25.630 18.397,25.307 18.337,24.970 C18.277,24.631 17.954,24.406 17.616,24.466 L17.045,24.571 C16.735,24.634 16.522,24.919 16.549,25.234 C16.575,25.548 16.835,25.793 17.150,25.802 C17.188,25.803 17.225,25.801 17.262,25.795 ZM15.697,27.211 C15.748,27.508 16.004,27.725 16.306,27.727 C16.343,27.726 16.380,27.722 16.417,27.715 C16.580,27.686 16.725,27.594 16.820,27.459 C16.914,27.324 16.951,27.156 16.921,26.994 L16.821,26.423 C16.792,26.260 16.700,26.116 16.565,26.022 C16.430,25.927 16.263,25.891 16.101,25.919 C15.938,25.947 15.793,26.039 15.698,26.174 C15.604,26.309 15.567,26.478 15.598,26.640 L15.697,27.211 ZM16.417,24.131 L16.312,23.553 C16.283,23.391 16.191,23.247 16.056,23.152 C15.921,23.058 15.754,23.021 15.591,23.050 C15.256,23.113 15.033,23.434 15.088,23.770 L15.194,24.342 C15.242,24.640 15.500,24.859 15.802,24.858 C15.838,24.859 15.873,24.857 15.908,24.851 C16.246,24.790 16.473,24.469 16.417,24.131 ZM14.287,26.311 C14.323,26.309 14.358,26.305 14.392,26.298 L14.964,26.199 C15.293,26.132 15.509,25.815 15.453,25.485 C15.395,25.154 15.085,24.928 14.753,24.975 L14.175,25.075 C13.846,25.119 13.609,25.415 13.639,25.747 C13.669,26.077 13.955,26.326 14.287,26.311 ZM6.045,29.509 C6.227,30.476 7.149,31.119 8.119,30.957 L9.262,30.752 C9.591,30.684 9.808,30.368 9.751,30.038 C9.693,29.707 9.384,29.481 9.051,29.528 L7.902,29.733 C7.606,29.782 7.325,29.586 7.269,29.292 L7.070,28.143 C7.031,27.924 6.878,27.743 6.670,27.667 C6.461,27.591 6.228,27.633 6.058,27.776 C5.888,27.919 5.807,28.141 5.846,28.360 L6.045,29.509 ZM4.958,3.821 C4.823,3.727 4.654,3.691 4.492,3.721 L3.343,3.920 C2.374,4.094 1.728,5.018 1.896,5.988 L2.101,7.137 C2.152,7.434 2.408,7.651 2.709,7.653 C2.747,7.652 2.784,7.648 2.821,7.641 C2.984,7.612 3.128,7.520 3.222,7.385 C3.317,7.249 3.353,7.082 3.325,6.920 L3.120,5.777 C3.093,5.633 3.127,5.485 3.213,5.367 C3.294,5.249 3.419,5.168 3.561,5.144 L4.709,4.945 C4.872,4.916 5.016,4.824 5.110,4.689 C5.205,4.554 5.242,4.387 5.213,4.225 C5.185,4.061 5.093,3.917 4.958,3.821 ZM5.672,7.056 C5.343,7.101 5.106,7.397 5.136,7.728 C5.166,8.060 5.452,8.309 5.784,8.293 C5.820,8.291 5.855,8.287 5.890,8.280 L6.461,8.181 C6.790,8.113 7.007,7.798 6.949,7.467 C6.892,7.135 6.582,6.910 6.250,6.957 L5.672,7.056 ZM7.809,5.541 C7.752,5.204 7.433,4.976 7.095,5.032 C6.757,5.092 6.530,5.414 6.585,5.752 L6.691,6.330 C6.742,6.625 7.000,6.841 7.300,6.839 C7.335,6.840 7.370,6.838 7.405,6.833 C7.743,6.772 7.970,6.452 7.914,6.113 L7.809,5.541 ZM7.306,8.038 C7.136,8.180 7.056,8.403 7.095,8.622 L7.194,9.193 C7.245,9.490 7.502,9.707 7.803,9.709 C7.840,9.710 7.877,9.708 7.914,9.703 C8.077,9.674 8.221,9.582 8.315,9.447 C8.410,9.311 8.447,9.145 8.417,8.982 L8.318,8.405 C8.279,8.186 8.127,8.005 7.918,7.929 C7.709,7.853 7.476,7.894 7.306,8.038 ZM9.580,6.554 C9.444,6.459 9.276,6.423 9.113,6.454 L8.542,6.554 C8.232,6.615 8.018,6.901 8.045,7.215 C8.073,7.530 8.331,7.775 8.647,7.783 C8.685,7.784 8.722,7.782 8.759,7.777 L9.331,7.677 C9.493,7.649 9.637,7.556 9.732,7.422 C9.826,7.286 9.862,7.120 9.834,6.957 C9.807,6.794 9.715,6.649 9.580,6.554 ZM16.890,3.343 C16.712,2.373 15.786,1.727 14.815,1.895 L13.672,2.100 C13.343,2.167 13.127,2.484 13.184,2.814 C13.241,3.145 13.551,3.371 13.883,3.324 L15.033,3.119 C15.176,3.094 15.324,3.127 15.442,3.212 C15.561,3.293 15.641,3.418 15.666,3.560 L15.865,4.709 C15.920,5.006 16.178,5.221 16.480,5.224 C16.515,5.223 16.550,5.218 16.585,5.212 C16.748,5.183 16.892,5.091 16.986,4.956 C17.080,4.821 17.117,4.653 17.088,4.491 L16.890,3.343 ZM18.908,14.771 C18.874,14.623 18.788,14.493 18.666,14.404 C18.534,14.308 18.368,14.268 18.207,14.296 C18.046,14.322 17.902,14.413 17.809,14.547 C17.796,14.560 17.523,14.857 16.753,14.634 C16.259,14.469 15.727,14.454 15.225,14.590 C15.114,14.313 14.973,14.048 14.803,13.801 C15.002,13.570 15.277,13.418 15.579,13.373 C16.921,13.050 17.349,12.168 17.387,11.702 C17.420,11.358 17.171,11.052 16.827,11.013 C16.665,10.995 16.502,11.044 16.375,11.148 C16.249,11.252 16.170,11.403 16.156,11.566 C16.150,11.584 16.063,11.982 15.287,12.162 C14.776,12.265 14.309,12.521 13.945,12.895 C13.709,12.710 13.453,12.552 13.182,12.423 C13.239,12.125 13.399,11.857 13.635,11.665 C14.641,10.715 14.567,9.733 14.368,9.311 C14.223,8.996 13.853,8.855 13.536,8.994 C13.387,9.062 13.272,9.186 13.214,9.338 C13.157,9.491 13.163,9.660 13.231,9.808 C13.237,9.827 13.362,10.212 12.784,10.764 C12.390,11.108 12.111,11.563 11.983,12.069 C11.685,12.024 11.382,12.014 11.082,12.038 C10.982,11.751 10.989,11.438 11.101,11.156 C11.492,9.833 10.945,9.019 10.560,8.746 C10.278,8.548 9.889,8.612 9.685,8.889 C9.587,9.020 9.547,9.185 9.573,9.347 C9.598,9.508 9.688,9.651 9.821,9.746 C9.834,9.759 10.138,10.032 9.908,10.801 C9.743,11.296 9.728,11.827 9.865,12.330 C9.587,12.441 9.322,12.582 9.076,12.752 C8.847,12.555 8.698,12.281 8.653,11.982 C8.331,10.634 7.449,10.206 6.977,10.168 C6.634,10.135 6.329,10.385 6.293,10.727 C6.275,10.890 6.322,11.053 6.425,11.180 C6.528,11.308 6.677,11.388 6.840,11.404 C6.858,11.404 7.256,11.491 7.442,12.267 C7.547,12.778 7.800,13.247 8.169,13.615 C8.124,13.666 8.083,13.721 8.045,13.777 C7.915,13.967 7.798,14.166 7.697,14.373 C7.397,14.320 7.128,14.159 6.939,13.920 C5.989,12.920 5.014,12.988 4.585,13.187 C4.270,13.331 4.131,13.703 4.275,14.019 C4.341,14.168 4.465,14.285 4.618,14.342 C4.771,14.399 4.940,14.392 5.088,14.323 C5.101,14.318 5.492,14.193 6.039,14.777 C6.386,15.165 6.839,15.444 7.343,15.578 C7.298,15.874 7.288,16.174 7.312,16.472 C7.025,16.569 6.713,16.562 6.430,16.454 C5.107,16.063 4.293,16.609 4.026,17.000 C3.925,17.149 3.889,17.333 3.927,17.510 C3.961,17.657 4.047,17.787 4.169,17.876 C4.275,17.948 4.401,17.987 4.529,17.989 C4.727,17.990 4.913,17.894 5.026,17.733 C5.039,17.721 5.312,17.417 6.076,17.646 C6.570,17.811 7.101,17.827 7.604,17.690 C7.714,17.969 7.858,18.234 8.032,18.479 C7.832,18.709 7.557,18.861 7.256,18.907 C5.914,19.224 5.486,20.106 5.442,20.578 C5.412,20.923 5.663,21.229 6.007,21.268 L6.064,21.268 C6.381,21.272 6.649,21.031 6.678,20.714 C6.685,20.696 6.765,20.298 7.548,20.112 C8.059,20.009 8.526,19.753 8.890,19.380 C8.942,19.427 8.998,19.470 9.057,19.510 C9.246,19.640 9.446,19.754 9.654,19.852 C9.600,20.152 9.438,20.424 9.200,20.615 C8.194,21.565 8.262,22.541 8.467,22.969 C8.570,23.193 8.792,23.339 9.039,23.342 C9.127,23.343 9.215,23.321 9.293,23.279 C9.442,23.215 9.559,23.093 9.618,22.941 C9.676,22.789 9.671,22.621 9.604,22.472 C9.598,22.453 9.467,22.069 10.051,21.516 C10.443,21.171 10.722,20.717 10.852,20.212 C11.035,20.241 11.220,20.256 11.405,20.255 C11.523,20.255 11.641,20.249 11.753,20.242 C11.846,20.530 11.839,20.841 11.734,21.125 C11.337,22.447 11.890,23.261 12.275,23.528 C12.382,23.605 12.510,23.646 12.641,23.646 C12.844,23.650 13.035,23.552 13.150,23.385 C13.248,23.254 13.288,23.088 13.261,22.926 C13.234,22.765 13.143,22.621 13.008,22.528 C12.995,22.516 12.697,22.248 12.920,21.479 C13.086,20.985 13.101,20.453 12.964,19.951 C13.243,19.840 13.508,19.696 13.753,19.522 C13.983,19.722 14.135,19.997 14.181,20.298 C14.505,21.640 15.386,22.069 15.859,22.112 L15.908,22.112 C16.234,22.116 16.509,21.871 16.542,21.547 C16.558,21.384 16.510,21.222 16.406,21.095 C16.302,20.969 16.151,20.890 15.989,20.876 C15.976,20.876 15.579,20.789 15.393,20.012 C15.289,19.500 15.034,19.031 14.660,18.665 C14.707,18.612 14.751,18.556 14.790,18.497 C14.919,18.309 15.034,18.113 15.132,17.907 C15.432,17.957 15.703,18.119 15.890,18.361 C16.327,18.876 16.960,19.184 17.635,19.212 C17.846,19.216 18.056,19.176 18.250,19.093 C18.562,18.946 18.699,18.577 18.560,18.261 C18.495,18.111 18.371,17.995 18.218,17.938 C18.064,17.880 17.895,17.887 17.747,17.957 C17.734,17.963 17.343,18.087 16.796,17.503 C16.449,17.113 15.992,16.836 15.486,16.708 C15.533,16.409 15.544,16.104 15.517,15.802 C15.805,15.708 16.117,15.717 16.399,15.826 C17.728,16.218 18.535,15.665 18.809,15.280 C18.911,15.131 18.946,14.947 18.908,14.771 ZM20.113,25.211 C19.777,25.273 19.552,25.595 19.610,25.932 L19.815,27.075 C19.841,27.218 19.807,27.366 19.722,27.485 C19.641,27.603 19.515,27.684 19.374,27.708 L18.225,27.907 C17.898,27.953 17.663,28.246 17.691,28.575 C17.719,28.904 18.000,29.154 18.330,29.143 C18.368,29.142 18.405,29.138 18.442,29.131 L19.585,28.932 C20.052,28.850 20.468,28.587 20.740,28.199 C21.013,27.811 21.120,27.330 21.039,26.863 L20.834,25.714 C20.806,25.552 20.714,25.407 20.578,25.312 C20.443,25.218 20.275,25.182 20.113,25.211 ZM14.095,17.181 C14.091,17.184 14.089,17.189 14.088,17.193 C13.921,17.611 13.660,17.985 13.324,18.286 C13.296,18.307 13.269,18.330 13.244,18.354 C13.237,18.361 13.225,18.367 13.225,18.373 C13.218,18.376 13.212,18.380 13.206,18.386 C12.831,18.685 12.387,18.885 11.914,18.969 C11.896,18.969 11.877,18.975 11.865,18.975 C11.402,19.051 10.927,19.008 10.486,18.851 C10.461,18.845 10.436,18.833 10.417,18.826 C10.394,18.818 10.368,18.812 10.343,18.808 L10.337,18.808 C10.294,18.795 10.251,18.789 10.206,18.789 C10.250,18.790 10.293,18.794 10.337,18.802 C9.888,18.625 9.494,18.334 9.194,17.957 C8.879,17.579 8.669,17.125 8.585,16.640 C8.589,16.624 8.587,16.606 8.579,16.590 C8.505,16.130 8.546,15.659 8.697,15.218 C8.717,15.171 8.734,15.124 8.747,15.075 C8.829,14.869 8.935,14.673 9.064,14.491 C9.211,14.278 9.389,14.088 9.592,13.926 L9.610,13.907 C9.969,13.613 10.396,13.412 10.852,13.323 C10.859,13.323 10.865,13.317 10.871,13.317 C10.902,13.316 10.933,13.312 10.964,13.305 C11.435,13.228 11.918,13.271 12.368,13.429 C12.394,13.442 12.421,13.452 12.448,13.460 C12.875,13.628 13.258,13.891 13.567,14.230 C13.594,14.272 13.625,14.312 13.660,14.348 C13.960,14.723 14.161,15.167 14.243,15.640 C14.243,15.657 14.245,15.674 14.250,15.690 C14.328,16.159 14.286,16.640 14.126,17.088 C14.113,17.117 14.102,17.149 14.095,17.181 Z" class="cls-1"/>
</svg>
