<svg xmlns="http://www.w3.org/2000/svg" xmlns:xlink="http://www.w3.org/1999/xlink" preserveAspectRatio="xMidYMid" width="30" height="36" viewBox="0 0 30 36">
  <defs>
    <style>
      .cls-1 {
        fill: #fff;
        fill-rule: evenodd;
      }
    </style>
  </defs>
  <path d="M23.454,26.999 L6.548,26.999 C2.448,24.249 -0.003,19.674 0.002,14.785 C0.002,6.632 6.730,-0.001 15.000,-0.001 C23.271,-0.001 29.999,6.632 29.999,14.785 C30.000,19.673 27.550,24.246 23.454,26.999 ZM11.219,9.013 C11.107,8.990 8.479,8.403 8.479,5.143 C8.479,4.787 8.187,4.499 7.827,4.499 C7.467,4.499 7.175,4.787 7.175,5.143 C7.175,8.403 4.547,8.990 4.439,9.012 C4.136,9.073 3.917,9.336 3.916,9.640 C3.916,9.945 4.132,10.209 4.435,10.272 C4.547,10.295 7.175,10.882 7.175,14.142 C7.175,14.497 7.467,14.785 7.827,14.785 C8.187,14.785 8.479,14.497 8.479,14.142 C8.479,10.886 11.101,10.297 11.219,10.272 C11.522,10.210 11.738,9.947 11.738,9.642 C11.738,9.338 11.522,9.076 11.219,9.013 ZM14.348,13.499 C14.348,13.145 14.056,12.857 13.696,12.857 C13.336,12.857 13.044,13.145 13.044,13.499 C13.044,15.549 11.589,16.084 11.533,16.104 C11.267,16.191 11.088,16.437 11.088,16.713 C11.088,16.991 11.267,17.236 11.533,17.323 C11.549,17.329 13.044,17.844 13.044,19.928 C13.044,20.283 13.336,20.571 13.696,20.571 C14.056,20.571 14.348,20.283 14.348,19.928 C14.348,17.888 15.790,17.348 15.864,17.322 L15.864,17.322 C16.128,17.232 16.306,16.987 16.305,16.711 C16.303,16.436 16.124,16.191 15.859,16.104 C15.844,16.099 14.348,15.583 14.348,13.499 ZM18.261,4.499 L17.609,4.499 L17.609,3.214 C17.609,2.859 17.317,2.571 16.957,2.571 C16.597,2.571 16.305,2.859 16.305,3.214 L16.305,4.499 L15.653,4.499 C15.292,4.499 15.000,4.787 15.000,5.143 C15.000,5.497 15.292,5.785 15.653,5.785 L16.305,5.785 L16.305,7.071 C16.305,7.426 16.597,7.714 16.957,7.714 C17.317,7.714 17.609,7.426 17.609,7.071 L17.609,5.785 L18.261,5.785 C18.621,5.785 18.913,5.497 18.913,5.143 C18.913,4.787 18.621,4.499 18.261,4.499 ZM25.325,7.357 C23.941,5.310 22.525,4.596 22.465,4.568 C22.144,4.411 21.755,4.539 21.594,4.854 C21.432,5.170 21.560,5.554 21.879,5.716 C21.890,5.722 23.063,6.331 24.240,8.070 C24.335,8.213 24.485,8.313 24.655,8.346 C24.825,8.380 25.002,8.346 25.146,8.252 C25.290,8.157 25.391,8.008 25.424,7.841 C25.458,7.673 25.422,7.499 25.325,7.357 ZM26.640,9.944 C26.449,9.644 26.046,9.552 25.741,9.740 C25.436,9.928 25.343,10.325 25.533,10.626 C25.564,10.673 28.516,15.478 24.248,21.488 C24.041,21.778 24.113,22.180 24.408,22.383 C24.703,22.587 25.110,22.516 25.316,22.225 C27.792,18.739 28.030,15.604 27.794,13.586 C27.535,11.378 26.676,10.002 26.640,9.944 ZM13.696,17.529 C13.298,17.529 12.976,17.164 12.976,16.713 C12.976,16.264 13.298,15.898 13.696,15.898 C14.094,15.898 14.417,16.264 14.417,16.713 C14.417,17.164 14.094,17.529 13.696,17.529 ZM7.827,11.387 C7.522,10.830 7.106,10.339 6.604,9.944 C6.467,9.836 6.325,9.735 6.177,9.642 C6.325,9.550 6.467,9.449 6.604,9.341 C7.106,8.945 7.522,8.455 7.827,7.897 C8.132,8.455 8.548,8.945 9.050,9.341 C9.187,9.449 9.330,9.550 9.477,9.642 C9.330,9.735 9.187,9.836 9.050,9.944 C8.548,10.339 8.132,10.830 7.827,11.387 ZM5.871,28.285 L24.130,28.285 C24.490,28.286 24.782,28.573 24.782,28.928 L24.782,29.571 L5.219,29.571 L5.219,28.928 C5.219,28.573 5.511,28.286 5.871,28.285 ZM7.827,34.071 C7.827,33.716 7.535,33.428 7.175,33.428 L2.228,33.428 L4.836,30.857 L25.164,30.857 L27.773,33.428 L9.783,33.428 C9.424,33.428 9.131,33.716 9.131,34.071 C9.131,34.426 9.424,34.714 9.783,34.714 L28.695,34.714 L28.695,35.999 L1.306,35.999 L1.306,34.714 L7.175,34.714 C7.535,34.714 7.827,34.426 7.827,34.071 Z" class="cls-1"/>
</svg>
