<svg xmlns="http://www.w3.org/2000/svg" xmlns:xlink="http://www.w3.org/1999/xlink" preserveAspectRatio="xMidYMid" width="22" height="19.97" viewBox="0 0 22 19.97">
  <defs>
    <style>
      .cls-1 {
        fill: #e5f0f5;
        fill-rule: evenodd;
      }
    </style>
  </defs>
  <path d="M21.526,11.299 L13.458,19.496 C12.828,20.136 11.807,20.136 11.177,19.496 L11.040,19.356 L19.974,10.278 C20.238,10.010 20.386,9.648 20.386,9.270 L20.387,1.639 C21.278,1.639 22.000,2.373 22.000,3.279 L22.000,10.140 C22.000,10.574 21.830,10.992 21.526,11.299 ZM9.508,18.596 C8.878,19.236 7.857,19.236 7.227,18.596 L0.473,11.732 C-0.157,11.091 -0.157,10.053 0.473,9.413 L9.265,0.480 C9.567,0.173 9.978,-0.000 10.405,-0.000 L17.160,-0.000 C18.051,-0.000 18.773,0.734 18.773,1.639 L18.773,8.502 C18.773,8.938 18.603,9.355 18.301,9.663 L9.508,18.596 ZM14.337,3.279 C13.669,3.279 13.127,3.829 13.127,4.508 C13.127,5.187 13.669,5.738 14.337,5.738 C15.005,5.738 15.547,5.187 15.547,4.508 C15.547,3.829 15.005,3.279 14.337,3.279 Z" class="cls-1"/>
</svg>
