<svg xmlns="http://www.w3.org/2000/svg" xmlns:xlink="http://www.w3.org/1999/xlink" preserveAspectRatio="xMidYMid" width="16" height="16" viewBox="0 0 16 16">
  <defs>
    <style>
      .cls-1 {
        fill: #97b0c1;
        fill-rule: evenodd;
      }
    </style>
  </defs>
  <path d="M7.999,15.996 C3.587,15.996 -0.002,12.408 -0.002,7.999 C-0.002,3.589 3.587,0.001 7.999,0.001 C12.410,0.001 15.999,3.589 15.999,7.999 C15.999,12.408 12.410,15.996 7.999,15.996 ZM7.999,1.749 C4.551,1.749 1.747,4.553 1.747,7.999 C1.747,11.445 4.551,14.248 7.999,14.248 C11.446,14.248 14.251,11.445 14.251,7.999 C14.251,4.553 11.446,1.749 7.999,1.749 ZM10.059,11.291 L7.535,8.768 C7.394,8.627 7.330,8.440 7.339,8.256 C7.338,8.246 7.336,8.236 7.336,8.224 L7.336,4.657 C7.336,4.282 7.640,3.979 8.014,3.979 C8.388,3.979 8.692,4.282 8.692,4.657 L8.692,8.008 L11.017,10.332 C11.282,10.597 11.281,11.026 11.017,11.291 C10.753,11.556 10.323,11.556 10.059,11.291 Z" class="cls-1"/>
</svg>
