<svg xmlns="http://www.w3.org/2000/svg" xmlns:xlink="http://www.w3.org/1999/xlink" preserveAspectRatio="xMidYMid" width="14" height="11" viewBox="0 0 14 11">
  <defs>
    <style>
      .cls-1 {
        fill: #fff;
        fill-rule: evenodd;
      }
    </style>
  </defs>
  <path d="M5.223,11.000 C4.618,11.000 3.994,10.953 3.367,10.859 C2.263,10.693 1.146,10.139 0.830,9.972 L-0.000,9.537 L0.898,9.253 C1.880,8.944 2.477,8.751 3.216,8.450 C2.476,8.106 1.905,7.487 1.631,6.687 L1.422,6.078 L1.593,6.103 C1.431,5.946 1.302,5.787 1.203,5.642 C0.849,5.126 0.662,4.495 0.702,3.956 L0.741,3.424 L1.073,3.548 C0.933,3.294 0.832,3.023 0.773,2.740 C0.628,2.048 0.749,1.313 1.114,0.670 L1.402,0.161 L1.789,0.607 C3.010,2.015 4.556,2.850 6.392,3.094 C6.317,2.598 6.373,2.119 6.559,1.690 C6.776,1.190 7.161,0.767 7.673,0.464 C8.241,0.129 8.931,-0.033 9.614,0.007 C10.339,0.050 10.997,0.311 11.520,0.761 C11.775,0.698 11.963,0.630 12.217,0.538 C12.370,0.482 12.544,0.420 12.761,0.348 L13.560,0.083 L13.039,1.513 C13.073,1.510 13.109,1.508 13.146,1.507 L14.000,1.470 L13.495,2.132 C13.466,2.170 13.459,2.181 13.449,2.196 C13.408,2.255 13.357,2.328 12.664,3.216 C12.491,3.438 12.404,3.728 12.420,4.031 C12.482,5.186 12.334,6.230 11.982,7.135 C11.648,7.992 11.131,8.727 10.446,9.319 C9.598,10.052 8.516,10.555 7.231,10.812 C6.601,10.938 5.924,11.000 5.223,11.000 L5.223,11.000 Z" class="cls-1"/>
</svg>
