<svg xmlns="http://www.w3.org/2000/svg" xmlns:xlink="http://www.w3.org/1999/xlink" preserveAspectRatio="xMidYMid" width="15" height="16" viewBox="0 0 15 16">
  <defs>
    <style>
      .cls-1 {
        fill: #ff7010;
        fill-rule: evenodd;
      }
    </style>
  </defs>
  <path d="M14.393,15.913 C14.264,15.970 14.131,15.997 13.999,15.997 C13.853,15.997 13.709,15.963 13.575,15.893 C13.293,15.747 13.089,15.469 13.000,15.108 C12.724,13.988 12.254,13.098 11.563,12.387 C10.005,10.783 8.158,10.249 6.076,10.801 C4.056,11.336 2.703,12.713 2.053,14.893 C1.787,15.786 1.331,16.140 0.698,15.945 C0.406,15.855 -0.237,15.517 0.091,14.319 C1.053,10.795 4.048,8.452 7.543,8.482 C11.088,8.515 14.063,10.930 14.946,14.492 C15.112,15.159 14.905,15.691 14.393,15.913 ZM7.497,7.509 C7.495,7.509 7.493,7.509 7.491,7.509 C6.526,7.508 5.619,7.115 4.937,6.405 C4.255,5.693 3.880,4.750 3.882,3.748 C3.884,2.748 4.263,1.806 4.949,1.095 C5.633,0.387 6.537,-0.003 7.496,-0.003 C7.499,-0.003 7.502,-0.003 7.505,-0.003 C9.494,0.003 11.111,1.692 11.109,3.761 C11.109,4.764 10.732,5.706 10.048,6.414 C9.366,7.121 8.460,7.509 7.497,7.509 ZM8.617,2.608 C8.325,2.302 7.935,2.132 7.519,2.131 C7.517,2.131 7.515,2.131 7.513,2.131 C6.614,2.131 5.933,2.833 5.928,3.767 C5.926,4.191 6.087,4.595 6.382,4.903 C6.681,5.216 7.077,5.388 7.497,5.389 C7.497,5.389 7.497,5.389 7.497,5.389 C8.360,5.389 9.066,4.661 9.070,3.766 C9.072,3.329 8.911,2.917 8.617,2.608 Z" class="cls-1"/>
</svg>
