<svg xmlns="http://www.w3.org/2000/svg" xmlns:xlink="http://www.w3.org/1999/xlink" preserveAspectRatio="xMidYMid" width="18.032" height="12" viewBox="0 0 18.032 12">
  <defs>
    <style>
      .cls-1 {
        fill: #e5f0f5;
        fill-rule: evenodd;
      }
    </style>
  </defs>
  <path d="M17.632,1.710 L17.655,1.848 C17.437,1.122 16.848,0.562 16.100,0.357 L16.085,0.354 C14.678,-0.005 9.019,-0.005 9.019,-0.005 C9.019,-0.005 3.374,-0.012 1.953,0.354 C1.191,0.562 0.602,1.122 0.388,1.834 L0.384,1.848 C-0.142,4.426 -0.145,7.522 0.407,10.282 L0.384,10.142 C0.602,10.868 1.190,11.429 1.938,11.633 L1.954,11.636 C3.359,11.996 9.020,11.996 9.020,11.996 C9.020,11.996 14.664,11.996 16.085,11.636 C16.848,11.429 17.438,10.868 17.652,10.157 L17.656,10.142 C17.895,8.944 18.031,7.564 18.031,6.155 C18.031,6.104 18.031,6.052 18.031,5.999 C18.031,5.951 18.031,5.894 18.031,5.837 C18.031,4.427 17.895,3.048 17.632,1.710 L17.632,1.710 ZM7.213,8.573 L7.213,3.425 L11.923,6.002 L7.213,8.573 Z" class="cls-1"/>
</svg>
